<?xml version="1.0" encoding="utf-8"?>
<!-- Generator: Adobe Illustrator 16.0.0, SVG Export Plug-In . SVG Version: 6.00 Build 0)  -->
<!DOCTYPE svg PUBLIC "-//W3C//DTD SVG 1.1//EN" "http://www.w3.org/Graphics/SVG/1.1/DTD/svg11.dtd">
<svg version="1.1" id="Layer_1" xmlns="http://www.w3.org/2000/svg" xmlns:xlink="http://www.w3.org/1999/xlink" x="0px" y="0px"
	 width="448.109px" height="271.684px" viewBox="0 0 448.109 271.684" enable-background="new 0 0 448.109 271.684"
	 xml:space="preserve">
<g enable-background="new    ">
	<path fill="#FFFFFF" d="M131.6,65.799v204.285H1.6V214.37h74.286v-18.571H1.6v-130H131.6z M75.886,121.513H57.314v18.571h18.571
		V121.513z"/>
	<path fill="#FFFFFF" d="M205.885,28.656V84.37h-55.714V28.656H205.885z M205.885,102.942v130h-55.714v-130H205.885z"/>
	<path fill="#FFFFFF" d="M280.168,28.656V84.37h-55.713V28.656H280.168z M280.168,102.942v130h-55.713v-130H280.168z"/>
	<path fill="#FFFFFF" d="M298.738,232.942V47.228h130v185.714h-55.715v-130h-18.572v130H298.738z"/>
</g>
<g enable-background="new    ">
	<path fill="none" stroke="#000000" stroke-width="1.6" stroke-miterlimit="10" d="M131.6,65.799v204.285H1.6V214.37h74.286v-18.571
		H1.6v-130H131.6z M75.886,121.513H57.314v18.571h18.571V121.513z"/>
	<path fill="none" stroke="#000000" stroke-width="1.6" stroke-miterlimit="10" d="M205.885,28.656V84.37h-55.714V28.656H205.885z
		 M205.885,102.942v130h-55.714v-130H205.885z"/>
	<path fill="none" stroke="#000000" stroke-width="1.6" stroke-miterlimit="10" d="M280.168,28.656V84.37h-55.713V28.656H280.168z
		 M280.168,102.942v130h-55.713v-130H280.168z"/>
	<path fill="none" stroke="#000000" stroke-width="1.6" stroke-miterlimit="10" d="M298.738,232.942V47.228h130v185.714h-55.715
		v-130h-18.572v130H298.738z"/>
</g>
<g>
	<rect x="150.888" y="29.675" fill="#A4FFE1" width="54.167" height="53.833"/>
</g>
<g>
	<rect x="225.221" y="29.675" fill="#FFCAD7" width="54.166" height="53.833"/>
</g>
</svg>
